<svg width="37" height="37" viewBox="0 0 37 37" fill="none" xmlns="http://www.w3.org/2000/svg">
<path d="M18.0772 0.0245758C15.6728 -0.000902012 13.2877 0.457118 11.0638 1.37143C8.83979 2.28574 6.82226 3.6377 5.13101 5.34698C3.44578 7.05428 2.12311 9.08465 1.24249 11.3161C0.361864 13.5475 -0.0585358 15.934 0.00655227 18.332C0.0131609 20.7628 0.530382 23.1651 1.5247 25.3832C2.51902 27.6012 3.96826 29.5857 5.77851 31.2079C5.95085 31.3567 6.0884 31.5415 6.18142 31.7493C6.27445 31.9571 6.32068 32.1828 6.31685 32.4104V35.0929C6.31685 35.9939 6.70535 37.0021 7.84679 37.0021C8.09498 36.9918 8.33771 36.926 8.55719 36.8097L12.0037 35.2853C12.3916 35.1346 12.822 35.1346 13.2099 35.2853C22.8372 37.903 33.6504 32.8618 36.2774 22.9459C37.0836 20.1989 37.2175 17.2983 36.6675 14.4888C36.1176 11.6793 34.9001 9.04318 33.1176 6.80292C31.3349 4.55651 29.0397 2.7701 26.4244 1.59336C23.8064 0.414114 20.9447 -0.124939 18.0772 0.0245758ZM26.3911 17.0222C21.6736 25.3287 21.6532 23.4602 15.7296 19.5123C15.0395 19.5123 14.6954 20.0266 12.3904 21.6583C10.0853 23.29 9.69863 23.9763 9.00858 23.2456C8.32039 22.5167 10.4516 20.0914 13.3172 15.4128C15.8147 11.2928 19.2612 17.0019 21.4571 17.3441C22.852 16.5654 24.153 15.6294 25.3347 14.5544C26.8443 13.3963 27.2735 12.9449 27.8766 13.4185C28.4797 13.8902 27.9635 14.5544 26.3911 17.0222Z" fill="#6B1A3B"/>
</svg>
