<svg width="37" height="38" viewBox="0 0 37 38" fill="none" xmlns="http://www.w3.org/2000/svg">
<path d="M31.5945 5.40332C29.8908 3.68316 27.8617 2.31947 25.6255 1.39179C23.3893 0.464119 20.9907 -0.00896851 18.5697 0.00012875C8.42535 0.00012875 0.157961 8.26519 0.148669 18.4119C0.148669 21.6617 0.99887 24.8232 2.60403 27.6224L0 37.1674L9.76569 34.6075C12.4661 36.0808 15.4935 36.8516 18.5697 36.8491H18.579C28.7256 36.8491 36.9907 28.5841 37 18.4281C37.0021 16.0077 36.5253 13.6109 35.5972 11.3755C34.6691 9.14013 33.3103 7.11045 31.5945 5.40332ZM18.5697 33.7317C15.8267 33.7296 13.1345 32.9915 10.7739 31.5946L10.2163 31.2601L4.4229 32.7793L5.96999 27.1276L5.60761 26.5445C4.07401 24.1062 3.26293 21.2831 3.26839 18.4026C3.26839 9.97953 10.1374 3.10824 18.579 3.10824C20.5901 3.10463 22.5819 3.49913 24.4398 4.269C26.2977 5.03887 27.9848 6.16887 29.4039 7.59386C30.8277 9.01353 31.9564 10.7009 32.725 12.5588C33.4937 14.4166 33.8871 16.4082 33.8826 18.4188C33.8733 26.872 27.0043 33.7317 18.5697 33.7317ZM26.9672 22.2703C26.5095 22.0403 24.2493 20.9276 23.8242 20.7696C23.4014 20.6187 23.0925 20.5397 22.7905 20.9996C22.4815 21.4572 21.5988 22.5002 21.334 22.7999C21.0692 23.1089 20.7951 23.1437 20.3351 22.9161C19.8775 22.6838 18.3931 22.2006 16.637 20.6279C15.2664 19.4084 14.3489 17.8985 14.0748 17.4409C13.81 16.9809 14.0492 16.7347 14.2792 16.5047C14.4813 16.3003 14.7368 15.9658 14.9668 15.701C15.1991 15.4361 15.2757 15.241 15.4267 14.9344C15.5777 14.6231 15.5057 14.3583 15.3919 14.1283C15.2757 13.8984 14.3582 11.6288 13.9702 10.7136C13.5986 9.80996 13.2199 9.9354 12.9365 9.92378C12.6717 9.90752 12.3628 9.90752 12.0538 9.90752C11.8205 9.91346 11.591 9.96748 11.3795 10.0662C11.1681 10.1649 10.9793 10.3062 10.825 10.4813C10.4022 10.9412 9.2198 12.0539 9.2198 14.3235C9.2198 16.593 10.8691 18.7742 11.1014 19.0832C11.329 19.3921 14.3396 24.0357 18.9599 26.0335C20.0517 26.5097 20.9112 26.7907 21.5826 27.0045C22.686 27.3575 23.6825 27.3041 24.477 27.1903C25.3597 27.0556 27.1971 26.0753 27.5851 24.9997C27.966 23.9219 27.966 23.002 27.8499 22.8092C27.7361 22.6141 27.4271 22.5002 26.9672 22.2703Z" fill="#6B1A3B"/>
</svg>
