<svg width="23" height="23" viewBox="0 0 23 23" fill="none" xmlns="http://www.w3.org/2000/svg">
<path d="M19.6134 22.132C20.281 22.1305 20.9207 21.8647 21.3927 21.3927C21.8648 20.9206 22.1306 20.2809 22.1321 19.6134L22.1321 5.36751C22.1321 5.03675 22.067 4.70924 21.9404 4.40366C21.8138 4.09808 21.6283 3.82042 21.3944 3.58654C20.9221 3.1142 20.2814 2.84884 19.6134 2.84884C18.9454 2.84884 18.3048 3.1142 17.8325 3.58654C17.3601 4.05888 17.0948 4.69952 17.0948 5.36751L17.0948 13.5332L4.29914 0.737606C3.82686 0.265327 3.18631 1.81679e-06 2.51841 1.82816e-06C1.85051 1.83953e-06 1.20996 0.265327 0.73768 0.737607C0.265401 1.20989 7.55676e-05 1.85043 7.55281e-05 2.51834C7.54886e-05 3.18624 0.265401 3.82679 0.73768 4.29907L13.5333 17.0947L5.36758 17.0947C5.03683 17.0947 4.70931 17.1598 4.40373 17.2864C4.09815 17.413 3.82049 17.5985 3.58662 17.8324C3.35274 18.0663 3.16721 18.3439 3.04064 18.6495C2.91406 18.9551 2.84891 19.2826 2.84891 19.6134C2.84891 19.9441 2.91406 20.2716 3.04064 20.5772C3.16721 20.8828 3.35274 21.1605 3.58662 21.3943C3.8205 21.6282 4.09815 21.8137 4.40373 21.9403C4.70931 22.0669 5.03682 22.132 5.36758 22.132L19.6134 22.132Z" fill="#6B1A3B"/>
</svg>
