<svg width="13" height="22" viewBox="0 0 13 22" fill="none" xmlns="http://www.w3.org/2000/svg">
<path d="M12.176 0.484117C12.486 0.79419 12.6602 1.21468 12.6602 1.65313C12.6602 2.09157 12.486 2.51207 12.176 2.82214L3.99131 11.0069L12.176 19.1916C12.4772 19.5035 12.6439 19.9211 12.6401 20.3547C12.6364 20.7882 12.4625 21.2029 12.1559 21.5095C11.8493 21.8161 11.4346 21.9899 11.0011 21.9937C10.5675 21.9975 10.1499 21.8308 9.83802 21.5296L0.484273 12.1759C0.174294 11.8658 0.000156317 11.4453 0.000156336 11.0069C0.000156355 10.5684 0.174294 10.1479 0.484274 9.83786L9.83802 0.484117C10.1481 0.174137 10.5686 -9.14255e-08 11.007 -7.22605e-08C11.4455 -5.30955e-08 11.866 0.174137 12.176 0.484117Z" fill="#6B1A3B"/>
</svg>
