<svg width="35" height="35" viewBox="0 0 35 35" fill="none" xmlns="http://www.w3.org/2000/svg">
<path d="M34.6596 14.0726H33.25V14H17.5V21H27.3901C25.9473 25.0749 22.0701 28 17.5 28C11.7014 28 7 23.2986 7 17.5C7 11.7014 11.7014 7 17.5 7C20.1766 7 22.6118 8.00975 24.4659 9.65912L29.4158 4.70925C26.2903 1.79637 22.1095 0 17.5 0C7.83562 0 0 7.83562 0 17.5C0 27.1644 7.83562 35 17.5 35C27.1644 35 35 27.1644 35 17.5C35 16.3266 34.8793 15.1813 34.6596 14.0726Z" fill="#FFC107"/>
<path d="M2.01782 9.35462L7.76745 13.5713C9.3232 9.7195 13.0909 7 17.5001 7C20.1767 7 22.6118 8.00975 24.4659 9.65912L29.4158 4.70925C26.2903 1.79637 22.1096 0 17.5001 0C10.7783 0 4.94907 3.79487 2.01782 9.35462Z" fill="#FF3D00"/>
<path d="M17.5 35C22.0203 35 26.1275 33.2701 29.2329 30.457L23.8167 25.8737C22.0009 27.2554 19.7817 28.0024 17.5 28C12.9483 28 9.0834 25.0976 7.6274 21.0472L1.92065 25.4441C4.8169 31.1115 10.6987 35 17.5 35Z" fill="#4CAF50"/>
<path d="M34.6596 14.0726H33.25V14H17.5V21H27.3901C26.6999 22.9394 25.4567 24.634 23.814 25.8746L23.8166 25.8729L29.2329 30.4561C28.8496 30.8044 35 26.25 35 17.5C35 16.3266 34.8793 15.1813 34.6596 14.0726Z" fill="#1976D2"/>
</svg>
