<svg width="27" height="21" viewBox="0 0 27 21" fill="none" xmlns="http://www.w3.org/2000/svg">
<path d="M1 3.71429C1 2.99441 1.28597 2.30402 1.795 1.795C2.30402 1.28597 2.99441 1 3.71429 1H22.7143C23.4342 1 24.1245 1.28597 24.6336 1.795C25.1426 2.30402 25.4286 2.99441 25.4286 3.71429V17.2857C25.4286 18.0056 25.1426 18.696 24.6336 19.205C24.1245 19.714 23.4342 20 22.7143 20H3.71429C2.99441 20 2.30402 19.714 1.795 19.205C1.28597 18.696 1 18.0056 1 17.2857V3.71429Z" stroke="#6B1A3B" stroke-width="2" stroke-linecap="round" stroke-linejoin="round"/>
<path d="M1 3.71436L13.2143 11.8572L25.4286 3.71436" stroke="#6B1A3B" stroke-width="2" stroke-linecap="round" stroke-linejoin="round"/>
</svg>
