<svg width="19" height="24" viewBox="0 0 19 24" fill="none" xmlns="http://www.w3.org/2000/svg">
<path opacity="0.6" fill-rule="evenodd" clip-rule="evenodd" d="M10.8854 0.0447374C11.0678 0.104076 11.2268 0.219615 11.3395 0.37481C11.4523 0.530005 11.513 0.716897 11.5131 0.908726V8.48226H17.8748C18.0425 8.48218 18.2069 8.52848 18.3499 8.61604C18.4929 8.70361 18.6089 8.82902 18.685 8.9784C18.7611 9.12778 18.7945 9.29531 18.7813 9.46246C18.7681 9.6296 18.709 9.78985 18.6104 9.92547L8.91627 23.2549C8.80355 23.4102 8.64455 23.5259 8.46206 23.5853C8.27958 23.6447 8.08297 23.6448 7.90041 23.5856C7.71785 23.5264 7.55872 23.4109 7.44582 23.2558C7.33291 23.1006 7.27203 22.9136 7.2719 22.7217V15.1482H0.910136C0.74227 15.1484 0.577616 15.1022 0.434433 15.0145C0.29125 14.9269 0.175133 14.8013 0.0989588 14.6518C0.0227842 14.5022 -0.0104715 14.3344 0.00287924 14.1671C0.01623 13.9997 0.0756656 13.8394 0.174595 13.7037L9.86871 0.374338C9.98163 0.219048 10.1408 0.10351 10.3235 0.0442971C10.5061 -0.0149158 10.7028 -0.0147616 10.8854 0.0447374Z" fill="#F5F5F5"/>
</svg>
