<svg width="27" height="27" viewBox="0 0 27 27" fill="none" xmlns="http://www.w3.org/2000/svg">
<path d="M10.8333 17.5L13.5 13.5V6.83333M1.5 13.5C1.5 15.0759 1.81039 16.6363 2.41345 18.0922C3.0165 19.5481 3.90042 20.871 5.01472 21.9853C6.12902 23.0996 7.45189 23.9835 8.9078 24.5866C10.3637 25.1896 11.9241 25.5 13.5 25.5C15.0759 25.5 16.6363 25.1896 18.0922 24.5866C19.5481 23.9835 20.871 23.0996 21.9853 21.9853C23.0996 20.871 23.9835 19.5481 24.5866 18.0922C25.1896 16.6363 25.5 15.0759 25.5 13.5C25.5 11.9241 25.1896 10.3637 24.5866 8.9078C23.9835 7.45189 23.0996 6.12902 21.9853 5.01472C20.871 3.90042 19.5481 3.0165 18.0922 2.41345C16.6363 1.81039 15.0759 1.5 13.5 1.5C11.9241 1.5 10.3637 1.81039 8.9078 2.41345C7.45189 3.0165 6.12902 3.90042 5.01472 5.01472C3.90042 6.12902 3.0165 7.45189 2.41345 8.9078C1.81039 10.3637 1.5 11.9241 1.5 13.5Z" stroke="black" stroke-width="3" stroke-linecap="round" stroke-linejoin="round"/>
</svg>
