<svg width="265" height="244" viewBox="0 0 265 244" fill="none" xmlns="http://www.w3.org/2000/svg">
<rect x="19.9133" y="51.84" width="153.179" height="153.179" rx="17" transform="rotate(-7.3787 19.9133 51.84)" fill="#F0D9E3"/>
<rect x="113.353" y="24.5087" width="111.821" height="110.289" fill="white"/>
<path d="M117.437 119.139C117.437 102.119 151.477 92.7585 168.497 92.7585C185.517 92.7585 219.557 102.119 219.557 119.139V127.649H117.437M194.027 51.0597C194.027 57.8307 191.337 64.3243 186.549 69.1121C181.762 73.8998 175.268 76.5896 168.497 76.5896C161.726 76.5896 155.232 73.8998 150.445 69.1121C145.657 64.3243 142.967 57.8307 142.967 51.0597C142.967 44.2888 145.657 37.7952 150.445 33.0074C155.232 28.2196 161.726 25.5299 168.497 25.5299C175.268 25.5299 181.762 28.2196 186.549 33.0074C191.337 37.7952 194.027 44.2888 194.027 51.0597ZM91.9075 17.0199V136.159C91.9075 140.673 93.7006 145.002 96.8925 148.194C100.084 151.386 104.413 153.179 108.927 153.179H228.067C232.581 153.179 236.91 151.386 240.102 148.194C243.293 145.002 245.087 140.673 245.087 136.159V17.0199C245.087 12.5059 243.293 8.17687 240.102 4.98502C236.91 1.79316 232.581 0 228.067 0H108.927C104.413 0 100.084 1.79316 96.8925 4.98502C93.7006 8.17687 91.9075 12.5059 91.9075 17.0199Z" fill="#6B1A3B"/>
<path d="M245.006 36.2775H225V56.2712H245.006V76.2775H265V56.2712V36.2775L245.006 36.2775Z" fill="#FF2323"/>
<path d="M19.9938 243.277L40 243.277L40 223.284L19.9938 223.284L19.9938 203.277L-3.17787e-07 203.277L-2.06679e-06 223.284L-3.8147e-06 243.277L19.9938 243.277Z" fill="#FF2323"/>
</svg>
